PathFileType	4	(X/Y/Z)	/Users/itak/Documents/Research/Walk-IL/dataset/trc/00328_00011.trc
DataRate	CameraRate	NumFrames	NumMarkers	Units	OrigDataRate	OrigDataStartFrame	OrigNumFrames
100.000000	100.000000	4	54	mm	100.000000	420	561
Frame#	Time	RPSI			LPSI			L3			STRN			T10			C7			CLAV			RBAK			LBAK			LSHO			LUPA			LAEL			LAOL			LWTS			LWPS			LFRA			LIFD			LHPS			LHTS			RSHO			RUPA			RAEL			RAOL			RWTS			RWPS			RFRA			RIFD			RHTS			RHPS			RBHD			LFHD			RFHD			LBHD			LHIP			RHIP			RASI			LASI			LKNE			LTHI			LANK			LTIP			LTOE			LMT1			LMT5			LHEE			RKNE			RTHI			RANK			RTIP			RTOE			RMT1			RMT5			RHEE			*53			
		X1	Y1	Z1	X2	Y2	Z2	X3	Y3	Z3	X4	Y4	Z4	X5	Y5	Z5	X6	Y6	Z6	X7	Y7	Z7	X8	Y8	Z8	X9	Y9	Z9	X10	Y10	Z10	X11	Y11	Z11	X12	Y12	Z12	X13	Y13	Z13	X14	Y14	Z14	X15	Y15	Z15	X16	Y16	Z16	X17	Y17	Z17	X18	Y18	Z18	X19	Y19	Z19	X20	Y20	Z20	X21	Y21	Z21	X22	Y22	Z22	X23	Y23	Z23	X24	Y24	Z24	X25	Y25	Z25	X26	Y26	Z26	X27	Y27	Z27	X28	Y28	Z28	X29	Y29	Z29	X30	Y30	Z30	X31	Y31	Z31	X32	Y32	Z32	X33	Y33	Z33	X34	Y34	Z34	X35	Y35	Z35	X36	Y36	Z36	X37	Y37	Z37	X38	Y38	Z38	X39	Y39	Z39	X40	Y40	Z40	X41	Y41	Z41	X42	Y42	Z42	X43	Y43	Z43	X44	Y44	Z44	X45	Y45	Z45	X46	Y46	Z46	X47	Y47	Z47	X48	Y48	Z48	X49	Y49	Z49	X50	Y50	Z50	X51	Y51	Z51	X52	Y52	Z52	X53	Y53	Z53	X54	Y54	Z54	

421	4.2	-821.9100952148438	981.8486328125	170.0774993896484	-832.1801147460938	984.4505615234375	40.72513198852539	-830.4937133789062	1051.494750976562	109.2674102783203	-582.2444458007812	1212.880004882812	68.52774810791016	-825.8435668945312	1170.574829101562	104.3088760375977	-767.8410034179688	1414.195678710938	80.98587036132812	-618.7117309570312	1339.364135742188	67.75201416015625	-822.2242431640625	1282.003173828125	160.5152893066406	-791.1019897460938	1378.047485351562	-17.59605407714844	-711.1666870117188	1387.206787109375	-83.10310363769531	-755.21435546875	1276.849975585938	-151.2736053466797	-781.498046875	1076.635009765625	-178.7227020263672	-832.20556640625	1069.578002929688	-111.8571472167969	-738.6773681640625	815.718994140625	-176.7077178955078	-791.355712890625	821.552978515625	-222.3368682861328	-792.2719116210938	973.7617797851562	-196.8276062011719	-774.1819458007812	657.733642578125	-188.80224609375	-810.1339721679688	753.4066772460938	-222.3002624511719	-749.7385864257812	742.5944213867188	-201.5400238037109	-689.8622436523438	1394.721313476562	231.7580871582031	-690.8240356445312	1334.175415039062	302.567138671875	-650.2577514648438	1072.66064453125	353.9540100097656	-716.0357055664062	1050.6865234375	287.286376953125	-523.5036010742188	860.9653930664062	285.7606506347656	-534.2037963867188	845.1600341796875	359.6131591796875	-613.8410034179688	1008.797058105469	357.3963623046875	-476.9978637695312	694.23291015625	292.1999206542969	-473.4157104492188	767.3775634765625	293.0993041992188	-504.4919128417969	764.4917602539062	354.7825622558594	-720.0750122070312	1605.463012695312	151.7907867431641	-556.32763671875	1623.380981445312	22.33297729492188	-561.4108276367188	1626.94873046875	123.7387008666992	-740.529541015625	1593.341064453125	7.908944606781006	-757.9487915039062	922.8414916992188	-69.8968505859375	-734.7020874023438	925.631591796875	272.8980407714844	-633.528564453125	950.1692504882812	219.1716613769531	-630.458984375	945.50537109375	-20.04390144348145	-682.3917846679688	459.3314208984375	-34.2968864440918	-697.4253540039062	601.386962890625	-53.9627799987793	-774.134765625	46.36641693115234	23.82193565368652	-729.136474609375	242.8445587158203	-13.23021030426025	-569.220703125	51.20621109008789	84.19908905029297	-634.5491943359375	33.7416877746582	122.3503494262695	-646.2459716796875	52.42465209960938	8.850130081176758	-810.0177001953125	46.88086318969727	92.96063232421875	-671.2307739257812	461.282470703125	252.1032562255859	-651.611572265625	718.0291748046875	270.1223449707031	-918.2320556640625	117.2098922729492	253.7155609130859	-720.4950561523438	350.7761840820312	251.4429473876953	-737.463134765625	58.0567741394043	200.1913604736328	-794.52587890625	61.60739517211914	160.126953125	-827.1701049804688	72.48194885253906	270.8584289550781	-967.1939086914062	134.1641235351562	207.1614837646484	nan	nan	nan	
422	4.21	-826.5425415039062	982.405029296875	170.2165985107422	-836.7570190429688	984.795166015625	40.86456680297852	-834.7958984375	1051.271484375	110.093864440918	-587.5974731445312	1213.524169921875	68.84239196777344	-831.2146606445312	1170.545043945312	105.3236999511719	-773.6116333007812	1414.307495117188	82.17079925537109	-624.3081665039062	1339.9208984375	68.22826385498047	-827.4840087890625	1281.87646484375	161.6926116943359	-797.2022705078125	1378.24853515625	-16.32649612426758	-717.610107421875	1387.646484375	-82.15046691894531	-762.0612182617188	1277.260009765625	-149.9546966552734	-788.3944702148438	1077.0673828125	-176.9621124267578	-838.2877197265625	1069.849975585938	-109.5320129394531	-744.7664794921875	816.23583984375	-175.6869659423828	-798.0804443359375	821.943359375	-220.6559448242188	-799.1318359375	974.1461791992188	-195.0748443603516	-780.1504516601562	658.1718139648438	-187.5329895019531	-816.7566528320312	753.7960815429688	-220.4732666015625	-756.2070922851562	742.3969116210938	-200.7438049316406	-695.1886596679688	1394.880126953125	232.6239318847656	-695.6758422851562	1334.231811523438	303.298828125	-653.6083374023438	1072.75146484375	353.6054992675781	-719.9662475585938	1050.720336914062	287.5629577636719	-527.4960327148438	860.9208984375	284.9001159667969	-537.2935791015625	845.4271850585938	358.6382446289062	-617.212890625	1008.984436035156	356.8888854980469	-481.3450622558594	694.0991821289062	290.8473205566406	-477.4246520996094	767.2249145507812	291.6958312988281	-507.9418029785156	764.565185546875	353.5994567871094	-725.4544677734375	1605.909545898438	152.6302795410156	-561.9144287109375	1623.413818359375	22.84940910339355	-566.7581787109375	1627.058349609375	124.2301254272461	-746.2224731445312	1593.771362304688	8.789977073669434	-762.3178100585938	923.1353149414062	-69.6046142578125	-739.862060546875	925.8369750976562	273.2539978027344	-638.3430786132812	950.04150390625	219.8541412353516	-635.2337036132812	945.6244506835938	-19.40983963012695	-685.3047485351562	459.7638549804688	-34.00143051147461	-701.034912109375	601.7304077148438	-53.67904663085938	-774.2684936523438	46.11796188354492	23.54056167602539	-730.6433715820312	243.1183319091797	-13.35628414154053	-569.2747192382812	51.44814682006836	83.92399597167969	-634.6939697265625	34.21055603027344	122.2940292358398	-646.2623291015625	52.35614395141602	8.648396492004395	-810.1116943359375	46.74736022949219	92.71134948730469	-682.9033203125	461.1187133789062	253.1325073242188	-659.5621948242188	717.5466918945312	270.7556762695312	-933.7631225585938	119.3662796020508	253.9010620117188	-733.3541259765625	350.915283203125	252.3425445556641	-753.5869140625	58.63573455810547	200.4874572753906	-810.4556884765625	62.7637939453125	160.2574310302734	-843.3019409179688	73.46060180664062	271.1091613769531	-982.3604736328125	137.0220184326172	207.2977294921875	nan	nan	nan	
423	4.22	-831.2161254882812	982.9347534179688	170.4661102294922	-841.38818359375	985.1429443359375	41.10842514038086	-839.0394897460938	1051.022827148438	110.9784393310547	-592.9564208984375	1214.042236328125	69.21028137207031	-836.6007080078125	1170.484619140625	106.3614196777344	-779.3106079101562	1414.3837890625	83.3382568359375	-629.8510131835938	1340.382080078125	68.73961639404297	-832.73388671875	1281.740600585938	162.8569793701172	-803.2095336914062	1378.396484375	-15.08133697509766	-723.9443969726562	1387.989990234375	-81.20952606201172	-768.77587890625	1277.550659179688	-148.6179504394531	-795.1792602539062	1077.372192382812	-175.1505279541016	-844.2695922851562	1070.00927734375	-107.1719970703125	-750.5635375976562	816.677734375	-174.5074615478516	-804.5344848632812	822.1695556640625	-218.8026580810547	-805.8512573242188	974.3770141601562	-193.2379302978516	-785.6157836914062	658.4915771484375	-186.0130462646484	-823.00927734375	753.99462890625	-218.4193420410156	-762.2655029296875	742.118896484375	-199.7778625488281	-700.474609375	1394.950561523438	233.5152130126953	-700.51708984375	1334.188598632812	304.0271911621094	-657.1219482421875	1072.744384765625	353.3493347167969	-724.0536499023438	1050.662719726562	287.9281616210938	-531.66455078125	860.7808837890625	284.0061645507812	-540.538818359375	845.59130859375	357.6880493164062	-620.7366943359375	1009.055969238281	356.4708251953125	-485.6906433105469	693.9636840820312	289.4751892089844	-481.5100708007812	767.0909423828125	290.2877197265625	-511.4806823730469	764.5794677734375	352.4190063476562	-730.8756713867188	1606.251220703125	153.5196838378906	-567.5392456054688	1623.465087890625	23.41073608398438	-572.1295776367188	1627.155395507812	124.7658767700195	-751.9215698242188	1594.129760742188	9.713907241821289	-766.7542724609375	923.4275512695312	-69.22296905517578	-745.0682373046875	925.9873657226562	273.6975708007812	-643.1930541992188	949.8383178710938	220.6064300537109	-639.9985961914062	945.73681640625	-18.71862411499023	-688.2642822265625	460.1925354003906	-33.65857315063477	-704.6776733398438	602.070556640625	-53.27850341796875	-774.3992919921875	45.86019515991211	23.26273918151855	-732.1790771484375	243.3833770751953	-13.470458984375	-569.3497314453125	51.70761108398438	83.65541839599609	-634.8734130859375	34.66038513183594	122.2569961547852	-646.2682495117188	52.28689575195312	8.460453033447266	-810.194580078125	46.59481811523438	92.47135925292969	-694.3943481445312	460.9925537109375	254.1365966796875	-667.4989624023438	717.0588989257812	271.4561462402344	-948.6255493164062	121.213737487793	253.8916320800781	-745.8861083984375	351.0461730957031	253.1578369140625	-768.9744873046875	59.21533584594727	200.5358276367188	-825.6620483398438	63.88845443725586	160.1477355957031	-858.7032470703125	74.26959228515625	271.1148376464844	-996.8965454101562	139.5372161865234	207.2365875244141	nan	nan	nan	
424	4.23	-835.9405517578125	983.4237670898438	170.8383026123047	-846.0852661132812	985.4962158203125	41.47538757324219	-843.2595825195312	1050.762817382812	111.9156036376953	-598.3101806640625	1214.427124023438	69.63072967529297	-841.9848022460938	1170.398315429688	107.4297714233398	-784.9378051757812	1414.42431640625	84.47853851318359	-635.3447265625	1340.736206054688	69.29566955566406	-837.9752197265625	1281.603515625	164.0126495361328	-809.1226196289062	1378.490112304688	-13.86923027038574	-730.1539916992188	1388.229125976562	-80.28099822998047	-775.3355712890625	1277.7177734375	-147.2786560058594	-801.8309936523438	1077.544189453125	-173.3070373535156	-850.1643676757812	1070.063110351562	-104.8198165893555	-756.0789184570312	817.035400390625	-173.1594696044922	-810.7020874023438	822.2265625	-216.7886810302734	-812.40869140625	974.4507446289062	-191.3336944580078	-790.6005859375	658.68896484375	-184.2232360839844	-828.8795776367188	753.9957275390625	-216.1517639160156	-767.9121704101562	741.84228515625	-198.5677185058594	-705.7127075195312	1394.939575195312	234.4268188476562	-705.3369750976562	1334.057495117188	304.7464294433594	-660.8265380859375	1072.64306640625	353.1995544433594	-728.296630859375	1050.522583007812	288.3711242675781	-535.9656372070312	860.589111328125	283.0628967285156	-543.9581298828125	845.6572265625	356.7667541503906	-624.4290161132812	1009.020446777344	356.1441040039062	-490.0052185058594	693.8473510742188	288.0986938476562	-485.666259765625	766.995849609375	288.8836669921875	-515.1136474609375	764.5507202148438	351.2542419433594	-736.3219604492188	1606.48486328125	154.4569702148438	-573.1962890625	1623.531005859375	24.01866340637207	-577.52490234375	1627.23291015625	125.3473281860352	-757.6212768554688	1594.4091796875	10.67664527893066	-771.2780151367188	923.742431640625	-68.74568176269531	-750.3187866210938	926.0645141601562	274.2373657226562	-648.0924072265625	949.5484008789062	221.4393310546875	-644.779296875	945.8645629882812	-17.93527221679688	-691.260498046875	460.6160888671875	-33.29533767700195	-708.3291015625	602.416259765625	-52.81131744384766	-774.5325927734375	45.59510040283203	22.98475074768066	-733.750732421875	243.6390838623047	-13.58545017242432	-569.4498901367188	51.98484802246094	83.39608764648438	-635.0768432617188	35.0953254699707	122.2170181274414	-646.2745971679688	52.21880340576172	8.280060768127441	-810.275146484375	46.42948532104492	92.23091125488281	-705.720458984375	460.8650817871094	255.0961456298828	-675.3961181640625	716.5506591796875	272.2081909179688	-962.7761840820312	122.6787033081055	253.6928253173828	-758.0888061523438	351.1320495605469	253.8884429931641	-783.5723876953125	59.68929290771484	200.3866729736328	-840.0794677734375	64.86893463134766	159.8427581787109	-873.3215942382812	74.83880615234375	270.90380859375	-1010.752502441406	141.6272277832031	206.97412109375	nan	nan	nan	
